<mxfile host="app.diagrams.net" modified="2024-04-03T21:50:13.477Z" agent="Mozilla/5.0 (Windows NT 10.0; Win64; x64) AppleWebKit/537.36 (KHTML, like Gecko) Chrome/123.0.0.0 Safari/537.36" etag="Xchx-WR31aRkjOAo73sI" version="24.2.2" type="device">
  <diagram name="PÃ¡gina-1" id="NjvE83cx9Jz2GaKLDqE3">
    <mxGraphModel dx="1702" dy="470" grid="1" gridSize="10" guides="1" tooltips="1" connect="1" arrows="1" fold="1" page="1" pageScale="1" pageWidth="827" pageHeight="1169" math="0" shadow="0">
      <root>
        <mxCell id="0" />
        <mxCell id="1" parent="0" />
        <mxCell id="TL688PLb5cW3H9Veu8jg-8" value="" style="rounded=0;whiteSpace=wrap;html=1;labelBackgroundColor=#030303;fillColor=#030303;strokeColor=none;" vertex="1" parent="1">
          <mxGeometry x="-21" y="50" width="870" height="280" as="geometry" />
        </mxCell>
        <mxCell id="TL688PLb5cW3H9Veu8jg-5" value="" style="sketch=0;pointerEvents=1;shadow=0;dashed=0;html=1;strokeColor=none;fillColor=#505050;labelPosition=center;verticalLabelPosition=bottom;verticalAlign=top;outlineConnect=0;align=center;shape=mxgraph.office.servers.windows_server;" vertex="1" parent="1">
          <mxGeometry x="619" y="200" width="104" height="110" as="geometry" />
        </mxCell>
        <mxCell id="TL688PLb5cW3H9Veu8jg-9" style="edgeStyle=orthogonalEdgeStyle;rounded=0;orthogonalLoop=1;jettySize=auto;html=1;exitX=0.5;exitY=0;exitDx=0;exitDy=0;strokeColor=#FFFFFF;" edge="1" parent="1" source="TL688PLb5cW3H9Veu8jg-7" target="TL688PLb5cW3H9Veu8jg-2">
          <mxGeometry relative="1" as="geometry" />
        </mxCell>
        <mxCell id="TL688PLb5cW3H9Veu8jg-10" style="edgeStyle=orthogonalEdgeStyle;rounded=0;orthogonalLoop=1;jettySize=auto;html=1;exitX=0.5;exitY=1;exitDx=0;exitDy=0;strokeColor=#FFFFFF;" edge="1" parent="1" source="TL688PLb5cW3H9Veu8jg-7" target="TL688PLb5cW3H9Veu8jg-5">
          <mxGeometry relative="1" as="geometry" />
        </mxCell>
        <mxCell id="TL688PLb5cW3H9Veu8jg-1" value="&lt;font style=&quot;font-size: 125px;&quot;&gt;IPv6&lt;/font&gt;" style="text;html=1;align=center;verticalAlign=middle;resizable=0;points=[];autosize=1;strokeColor=none;fillColor=default;strokeWidth=8;fontStyle=1" vertex="1" parent="1">
          <mxGeometry x="80" y="110" width="270" height="160" as="geometry" />
        </mxCell>
        <mxCell id="TL688PLb5cW3H9Veu8jg-2" value="" style="sketch=0;pointerEvents=1;shadow=0;dashed=0;html=1;strokeColor=none;fillColor=#505050;labelPosition=center;verticalLabelPosition=bottom;verticalAlign=top;outlineConnect=0;align=center;shape=mxgraph.office.servers.windows_server;" vertex="1" parent="1">
          <mxGeometry x="619" y="60" width="104" height="110" as="geometry" />
        </mxCell>
        <mxCell id="TL688PLb5cW3H9Veu8jg-4" value="" style="shadow=0;dashed=0;html=1;strokeColor=none;fillColor=#EF8F21;labelPosition=center;verticalLabelPosition=bottom;verticalAlign=top;align=center;outlineConnect=0;shape=mxgraph.veeam.linux;" vertex="1" parent="1">
          <mxGeometry x="680" y="190" width="50" height="50" as="geometry" />
        </mxCell>
        <mxCell id="TL688PLb5cW3H9Veu8jg-11" value="" style="edgeStyle=orthogonalEdgeStyle;rounded=0;orthogonalLoop=1;jettySize=auto;html=1;" edge="1" parent="1" source="TL688PLb5cW3H9Veu8jg-1" target="TL688PLb5cW3H9Veu8jg-7">
          <mxGeometry relative="1" as="geometry">
            <mxPoint x="350" y="190" as="sourcePoint" />
            <mxPoint x="619" y="290" as="targetPoint" />
          </mxGeometry>
        </mxCell>
        <mxCell id="TL688PLb5cW3H9Veu8jg-12" value="" style="edgeStyle=orthogonalEdgeStyle;rounded=0;orthogonalLoop=1;jettySize=auto;html=1;strokeColor=#FFFFFF;" edge="1" parent="1" source="TL688PLb5cW3H9Veu8jg-1" target="TL688PLb5cW3H9Veu8jg-7">
          <mxGeometry relative="1" as="geometry">
            <mxPoint x="350" y="190" as="sourcePoint" />
            <mxPoint x="619" y="100" as="targetPoint" />
          </mxGeometry>
        </mxCell>
        <mxCell id="TL688PLb5cW3H9Veu8jg-7" value="" style="shape=image;verticalLabelPosition=bottom;labelBackgroundColor=default;verticalAlign=top;aspect=fixed;imageAspect=0;image=data:image/png,iVBORw0KGgoAAAANSUhEUgAAAOEAAADhCAMAAAAJbSJIAAAAZlBMVEX///8jJinaRFMAAAC0tbUAAAj43+GTlJWCg4TYMEPaQlHZPEzrpKoZHSAdISTeXGj39/fr6+z77/AvMTQUGR3wv8ObnJ3XKT27vLzaPk7idX7x8fIIDhPWGjP87/D55ObfY27jfYbyeZbQAAAE2klEQVR4nO3d23LaMBAGYBsTEhN6SlsaStIk7/+SxeNSfJClXWulPYz+OxgPo298EWl3HVeVyWyP3CtInG3T2CZum7o2TeyApok90DDxCjRLvAGNEodAk8Qx0CBxCjRHnAPrZsu9KMoUoPYUoPYUoPYUoPYUoPYUoPYUoPYUoPYoBT58g16pFdj8ABK1Au/qzzCiXmANI2oGgoi6gQCidmCQqB8YIFoAeok2gB6iFeAi0Q5wgWgJ6CTaAjqI1oAzoj3ghGgROCLaBA6IVoH/iXaB/4iWgR3xbBt4IdYvtoGuFKCAFGABCk8BFqDwRAFfrAPr+sy9/mAigcDOFGMigfKJ0UDpRAKgbCIJUDKRCCiXSAaUSiQEyiSSAiUSiYHyiORAacQEQFnEJEBJxERAOcRkQCnEhEAZxKRACcTEQH5iciA3MQOQl5gFWNfNAxfwed7WTJE7NmBV3ecgcgKzEHmBGYjcwOREfmBiogRgUqIMYEKiFGAyohxgIiIf8NnxXQIiH/ChuXd8S05kBN7VOYiswDoDkRmYnsgOTE0UAExLFAFMSRQCTEcUA0xFFARMQxQFTEEUBqQnigNSEwUCaYkigZREoUA6olggFVEwkIYoGkhBFA6MJ4oHxhIVAOOIKoAxRCXA9UQ1wLVERcB1RFXANURlQDxRHRBLVAjEEVUCMUSlQDhRLRBKVAyEEVUDIUTlwDBRPTBENAD0E/mApJ34ZSLjIND5+6cMRNZJp685iLyjXBmIromqnMlA5E4hFmIhykghFmIhyggxkXsn4wolUdJjBYPQEYUC6YhigVREwUAaomggBVE4sCN+tg28JIqoAbid/xtqY0CdI83w5AM+4RaGvHwx+YA/X3eYhR3aP0iKOxmBv/Ytgnho9yeKu5gTuNkgiIf2cvkp/i7mBSKIHbAjxt7F3EAwsQfGEx1A+J/+VUAg8QqMJTqAL+DdzUogiHgDxhHdbwwBbsNXAwHEITCGuPBKFNhJIwIYJI6B64mL73yBEKOAAeIUuJboealNmBgJ9BLnwHVE71t7QkTcXvR1P1/yMtEF3Gwef5MCQ0TkaWLXIogLwC/EQD8RfVxCELMBfcQV50EwMSNwmbjqwAskZgUuEVee6EHEzEA3cXXJAkDMDnQRI2oyQSIDcE6MKjoFiCzAKTGyquYlMgHHxOiyoYfIBhwSCeqiS8Q3RuCNSFL4XSA+PjICr0Siyrab6Ew2YE8kK92DiRmBHZFwIBZIzAqsqjPlpAyImBlIHABRNxBA1A4MEvUDA0QLQC/RBtBDPBkBVtWbc6e22b9jf0gqsDosCE+oRrhkoPM0sUF1ibvoAyKJGoEook4ggqgVCCbqBQKJmoEgom4ggKgdGCQqA+5RXeIuyoCn9xOSqAx4OS6hGuEagchev0YgiqgTiCBqBYKJeoFAomYgiKgbCCBqBwaJ+oEBogWglygW+ORc82Jl201sP+QCL0THvtpTuncRu/HS40woBegiensTc2I/PzslygHOiYHmy5R4HRAeEyUBp8Rgd2lMvE1AD4mygGMioH02JA5HvG9EacAhEdQfvBHHM+xXojzgjQhsgF6J0yH9nigReCWCO7w9cf4UQkeUCeyJiBZ2R3Q9ZnFspAI7IqpHv2tb53MkR7HACxH35MvuY/DhL1oXe1UJcfhsAAAAAElFTkSuQmCC;" vertex="1" parent="1">
          <mxGeometry x="430" y="147.5" width="85" height="85" as="geometry" />
        </mxCell>
        <mxCell id="TL688PLb5cW3H9Veu8jg-13" value="" style="shape=image;verticalLabelPosition=bottom;labelBackgroundColor=default;verticalAlign=top;aspect=fixed;imageAspect=0;image=data:image/svg+xml,PHN2ZyB4bWxuczp4bGluaz0iaHR0cDovL3d3dy53My5vcmcvMTk5OS94bGluayIgeG1sbnM9Imh0dHA6Ly93d3cudzMub3JnLzIwMDAvc3ZnIiB4bWw6c3BhY2U9InByZXNlcnZlIiB2aWV3Qm94PSIwIDAgNTEyIDUxMiIgaWQ9IkxheWVyXzEiIHZlcnNpb249IjEuMSIgd2lkdGg9IjgwMHB4IiBoZWlnaHQ9IjgwMHB4Ij4mI3hhOzxjaXJjbGUgcj0iMjQ1LjgwMSIgY3k9IjI1NiIgY3g9IjI1NiIgc3R5bGU9ImZpbGw6I0YyRjJGMjsiLz4mI3hhOzxwYXRoIGQ9Ik0yNTYsMTAuMTk5QzEyMC4yNDgsMTAuMTk5LDEwLjE5OSwxMjAuMjQ4LDEwLjE5OSwyNTZTMTIwLjI0OCw1MDEuODAxLDI1Niw1MDEuODAxJiMxMDsmIzk7UzUwMS44MDEsMzkxLjc1Miw1MDEuODAxLDI1NlMzOTEuNzUyLDEwLjE5OSwyNTYsMTAuMTk5eiBNNjUuMjc1LDI1NmMwLTEwNS4zMzQsODUuMzkxLTE5MC43MjUsMTkwLjcyNS0xOTAuNzI1JiMxMDsmIzk7YzQyLjM2NCwwLDgxLjQ5NiwxMy44MjEsMTEzLjE1MSwzNy4xODdMMTAyLjQ2MiwzNjkuMTUxQzc5LjA5NiwzMzcuNDk2LDY1LjI3NSwyOTguMzY0LDY1LjI3NSwyNTZ6IE0yNTYsNDQ2LjcyNSYjMTA7JiM5O2MtNDIuMzY0LDAtODEuNDk2LTEzLjgyMS0xMTMuMTUxLTM3LjE4N0w0MDkuNTM3LDE0Mi44NWMyMy4zNjcsMzEuNjU0LDM3LjE4OCw3MC43ODYsMzcuMTg4LDExMy4xNSYjMTA7JiM5O0M0NDYuNzI1LDM2MS4zMzQsMzYxLjMzNCw0NDYuNzI1LDI1Niw0NDYuNzI1eiIgc3R5bGU9ImZpbGw6I0ZGNzU3QzsiLz4mI3hhOzxnPiYjeGE7CTxwYXRoIGQ9Ik0yNTYsNTEyYy02OC4zOCwwLTEzMi42NjctMjYuNjI4LTE4MS4wMi03NC45OFMwLDMyNC4zOCwwLDI1NlMyNi42MjgsMTIzLjMzMyw3NC45OCw3NC45OCYjMTA7JiM5OyYjOTtTMTg3LjYyLDAsMjU2LDBzMTMyLjY2NywyNi42MjgsMTgxLjAyLDc0Ljk4UzUxMiwxODcuNjIsNTEyLDI1NnMtMjYuNjI4LDEzMi42NjctNzQuOTgsMTgxLjAyUzMyNC4zOCw1MTIsMjU2LDUxMnogTTI1NiwyMC4zOTgmIzEwOyYjOTsmIzk7QzEyNi4wODksMjAuMzk4LDIwLjM5OCwxMjYuMDg5LDIwLjM5OCwyNTZTMTI2LjA4OSw0OTEuNjAyLDI1Niw0OTEuNjAyUzQ5MS42MDIsMzg1LjkxMSw0OTEuNjAyLDI1NlMzODUuOTExLDIwLjM5OCwyNTYsMjAuMzk4eiYjMTA7JiM5OyYjOTsgTTI1Niw0NTYuOTI0Yy00My4yNjMsMC04NC40ODQtMTMuNTQ5LTExOS4yMDctMzkuMTgxYy0yLjM5LTEuNzYzLTMuODkxLTQuNDgzLTQuMTEzLTcuNDQ0Yy0wLjIyMS0yLjk2MiwwLjg1OS01Ljg3MywyLjk1OS03Ljk3NCYjMTA7JiM5OyYjOTtsMjY2LjY4OC0yNjYuNjg4YzIuMTAxLTIuMSw1LjAxNS0zLjE3Nyw3Ljk3NC0yLjk1OWMyLjk2MiwwLjIyMiw1LjY4LDEuNzI0LDcuNDQ0LDQuMTEzYzI1LjYzMiwzNC43MjQsMzkuMTgsNzUuOTQ1LDM5LjE4LDExOS4yMDgmIzEwOyYjOTsmIzk7QzQ1Ni45MjQsMzY2Ljc5LDM2Ni43OSw0NTYuOTI0LDI1Niw0NTYuOTI0eiBNMTU4LjcxNyw0MDguMDk0YzI5LjAyMiwxOC42MzgsNjIuNDEyLDI4LjQzMiw5Ny4yODMsMjguNDMyJiMxMDsmIzk7JiM5O2M5OS41NDIsMCwxODAuNTI2LTgwLjk4NCwxODAuNTI2LTE4MC41MjZjMC0zNC44NzEtOS43OTQtNjguMjYxLTI4LjQzMi05Ny4yODNMMTU4LjcxNyw0MDguMDk0eiBNMTAyLjQ2MywzNzkuMzQ5JiMxMDsmIzk7JiM5O2MtMC4yNTQsMC0wLjUwOC0wLjAwOS0wLjc2Mi0wLjAyOWMtMi45NjItMC4yMjItNS42OC0xLjcyNC03LjQ0NC00LjExM0M2OC42MjQsMzQwLjQ4NCw1NS4wNzYsMjk5LjI2Myw1NS4wNzYsMjU2JiMxMDsmIzk7JiM5O0M1NS4wNzYsMTQ1LjIxLDE0NS4yMSw1NS4wNzYsMjU2LDU1LjA3NmM0My4yNjMsMCw4NC40ODQsMTMuNTQ5LDExOS4yMDcsMzkuMTgxYzIuMzksMS43NjMsMy44OTEsNC40ODMsNC4xMTMsNy40NDQmIzEwOyYjOTsmIzk7YzAuMjIxLDIuOTYyLTAuODU5LDUuODczLTIuOTU5LDcuOTc0TDEwOS42NzUsMzc2LjM2M0MxMDcuNzU1LDM3OC4yODIsMTA1LjE1OCwzNzkuMzQ5LDEwMi40NjMsMzc5LjM0OXogTTI1Niw3NS40NzQmIzEwOyYjOTsmIzk7Yy05OS41NDIsMC0xODAuNTI2LDgwLjk4NC0xODAuNTI2LDE4MC41MjZjMCwzNC44NzEsOS43OTQsNjguMjYxLDI4LjQzMiw5Ny4yODNsMjQ5LjM3Ny0yNDkuMzc3JiMxMDsmIzk7JiM5O0MzMjQuMjYxLDg1LjI2OCwyOTAuODcxLDc1LjQ3NCwyNTYsNzUuNDc0eiIgc3R5bGU9ImZpbGw6IzRENEQ0RDsiLz4mI3hhOwk8cGF0aCBkPSJNMjUyLjY2LDQyMi4yMTZjLTUuNjMzLDAtMTAuMTk5LTQuNTY2LTEwLjE5OS0xMC4xOTljMC01LjYzMyw0LjU2Ni0xMC4xOTksMTAuMTk5LTEwLjE5OSYjMTA7JiM5OyYjOTtjMzEuODQ0LDAsNjIuMjI0LTkuODkxLDg3Ljg1Ni0yOC42MDZjNC41NDktMy4zMiwxMC45MzEtMi4zMjUsMTQuMjUxLDIuMjIzYzMuMzIxLDQuNTQ5LDIuMzI2LDEwLjkyOS0yLjIyMywxNC4yNTEmIzEwOyYjOTsmIzk7QzMyMy4zOTYsNDEwLjk2OCwyODguODU3LDQyMi4yMTYsMjUyLjY2LDQyMi4yMTZ6IiBzdHlsZT0iZmlsbDojNEQ0RDREOyIvPiYjeGE7CTxwYXRoIGQ9Ik0zNzQuODY5LDM2NS4xMzFjLTIuMzExLDAtNC42MzUtMC43ODEtNi41NDUtMi4zOGMtNC4zMTctMy42MTgtNC44ODUtMTAuMDUtMS4yNjktMTQuMzY4JiMxMDsmIzk7JiM5O2MxLjgxMy0yLjE2NCwzLjU5MS00LjQxMyw1LjI4NC02LjY4NWMzLjM2Ny00LjUxNSw5Ljc1Ny01LjQ0NiwxNC4yNzMtMi4wODJjNC41MTYsMy4zNjcsNS40NDgsOS43NTcsMi4wODIsMTQuMjczJiMxMDsmIzk7JiM5O2MtMS45MjMsMi41NzktMy45NDMsNS4xMzQtNi4wMDIsNy41OTNDMzgwLjY3NSwzNjMuODksMzc3Ljc4MywzNjUuMTMxLDM3NC44NjksMzY1LjEzMXoiIHN0eWxlPSJmaWxsOiM0RDRENEQ7Ii8+JiN4YTs8L2c+JiN4YTs8L3N2Zz4=;" vertex="1" parent="1">
          <mxGeometry x="600" y="250" width="40" height="40" as="geometry" />
        </mxCell>
        <mxCell id="TL688PLb5cW3H9Veu8jg-14" value="" style="shape=image;verticalLabelPosition=bottom;labelBackgroundColor=default;verticalAlign=top;aspect=fixed;imageAspect=0;image=data:image/svg+xml,PHN2ZyB4bWxuczp4bGluaz0iaHR0cDovL3d3dy53My5vcmcvMTk5OS94bGluayIgeG1sbnM9Imh0dHA6Ly93d3cudzMub3JnLzIwMDAvc3ZnIiB4bWw6c3BhY2U9InByZXNlcnZlIiB2aWV3Qm94PSIwIDAgNTEyIDUxMiIgaWQ9IkxheWVyXzEiIHZlcnNpb249IjEuMSIgd2lkdGg9IjgwMHB4IiBoZWlnaHQ9IjgwMHB4Ij4mI3hhOzxjaXJjbGUgcj0iMjQ1LjgwMSIgY3k9IjI1NiIgY3g9IjI1NiIgc3R5bGU9ImZpbGw6I0YyRjJGMjsiLz4mI3hhOzxwYXRoIGQ9Ik0yNTYsMTAuMTk5QzEyMC4yNDgsMTAuMTk5LDEwLjE5OSwxMjAuMjQ4LDEwLjE5OSwyNTZTMTIwLjI0OCw1MDEuODAxLDI1Niw1MDEuODAxJiMxMDsmIzk7UzUwMS44MDEsMzkxLjc1Miw1MDEuODAxLDI1NlMzOTEuNzUyLDEwLjE5OSwyNTYsMTAuMTk5eiBNNjUuMjc1LDI1NmMwLTEwNS4zMzQsODUuMzkxLTE5MC43MjUsMTkwLjcyNS0xOTAuNzI1JiMxMDsmIzk7YzQyLjM2NCwwLDgxLjQ5NiwxMy44MjEsMTEzLjE1MSwzNy4xODdMMTAyLjQ2MiwzNjkuMTUxQzc5LjA5NiwzMzcuNDk2LDY1LjI3NSwyOTguMzY0LDY1LjI3NSwyNTZ6IE0yNTYsNDQ2LjcyNSYjMTA7JiM5O2MtNDIuMzY0LDAtODEuNDk2LTEzLjgyMS0xMTMuMTUxLTM3LjE4N0w0MDkuNTM3LDE0Mi44NWMyMy4zNjcsMzEuNjU0LDM3LjE4OCw3MC43ODYsMzcuMTg4LDExMy4xNSYjMTA7JiM5O0M0NDYuNzI1LDM2MS4zMzQsMzYxLjMzNCw0NDYuNzI1LDI1Niw0NDYuNzI1eiIgc3R5bGU9ImZpbGw6I0ZGNzU3QzsiLz4mI3hhOzxnPiYjeGE7CTxwYXRoIGQ9Ik0yNTYsNTEyYy02OC4zOCwwLTEzMi42NjctMjYuNjI4LTE4MS4wMi03NC45OFMwLDMyNC4zOCwwLDI1NlMyNi42MjgsMTIzLjMzMyw3NC45OCw3NC45OCYjMTA7JiM5OyYjOTtTMTg3LjYyLDAsMjU2LDBzMTMyLjY2NywyNi42MjgsMTgxLjAyLDc0Ljk4UzUxMiwxODcuNjIsNTEyLDI1NnMtMjYuNjI4LDEzMi42NjctNzQuOTgsMTgxLjAyUzMyNC4zOCw1MTIsMjU2LDUxMnogTTI1NiwyMC4zOTgmIzEwOyYjOTsmIzk7QzEyNi4wODksMjAuMzk4LDIwLjM5OCwxMjYuMDg5LDIwLjM5OCwyNTZTMTI2LjA4OSw0OTEuNjAyLDI1Niw0OTEuNjAyUzQ5MS42MDIsMzg1LjkxMSw0OTEuNjAyLDI1NlMzODUuOTExLDIwLjM5OCwyNTYsMjAuMzk4eiYjMTA7JiM5OyYjOTsgTTI1Niw0NTYuOTI0Yy00My4yNjMsMC04NC40ODQtMTMuNTQ5LTExOS4yMDctMzkuMTgxYy0yLjM5LTEuNzYzLTMuODkxLTQuNDgzLTQuMTEzLTcuNDQ0Yy0wLjIyMS0yLjk2MiwwLjg1OS01Ljg3MywyLjk1OS03Ljk3NCYjMTA7JiM5OyYjOTtsMjY2LjY4OC0yNjYuNjg4YzIuMTAxLTIuMSw1LjAxNS0zLjE3Nyw3Ljk3NC0yLjk1OWMyLjk2MiwwLjIyMiw1LjY4LDEuNzI0LDcuNDQ0LDQuMTEzYzI1LjYzMiwzNC43MjQsMzkuMTgsNzUuOTQ1LDM5LjE4LDExOS4yMDgmIzEwOyYjOTsmIzk7QzQ1Ni45MjQsMzY2Ljc5LDM2Ni43OSw0NTYuOTI0LDI1Niw0NTYuOTI0eiBNMTU4LjcxNyw0MDguMDk0YzI5LjAyMiwxOC42MzgsNjIuNDEyLDI4LjQzMiw5Ny4yODMsMjguNDMyJiMxMDsmIzk7JiM5O2M5OS41NDIsMCwxODAuNTI2LTgwLjk4NCwxODAuNTI2LTE4MC41MjZjMC0zNC44NzEtOS43OTQtNjguMjYxLTI4LjQzMi05Ny4yODNMMTU4LjcxNyw0MDguMDk0eiBNMTAyLjQ2MywzNzkuMzQ5JiMxMDsmIzk7JiM5O2MtMC4yNTQsMC0wLjUwOC0wLjAwOS0wLjc2Mi0wLjAyOWMtMi45NjItMC4yMjItNS42OC0xLjcyNC03LjQ0NC00LjExM0M2OC42MjQsMzQwLjQ4NCw1NS4wNzYsMjk5LjI2Myw1NS4wNzYsMjU2JiMxMDsmIzk7JiM5O0M1NS4wNzYsMTQ1LjIxLDE0NS4yMSw1NS4wNzYsMjU2LDU1LjA3NmM0My4yNjMsMCw4NC40ODQsMTMuNTQ5LDExOS4yMDcsMzkuMTgxYzIuMzksMS43NjMsMy44OTEsNC40ODMsNC4xMTMsNy40NDQmIzEwOyYjOTsmIzk7YzAuMjIxLDIuOTYyLTAuODU5LDUuODczLTIuOTU5LDcuOTc0TDEwOS42NzUsMzc2LjM2M0MxMDcuNzU1LDM3OC4yODIsMTA1LjE1OCwzNzkuMzQ5LDEwMi40NjMsMzc5LjM0OXogTTI1Niw3NS40NzQmIzEwOyYjOTsmIzk7Yy05OS41NDIsMC0xODAuNTI2LDgwLjk4NC0xODAuNTI2LDE4MC41MjZjMCwzNC44NzEsOS43OTQsNjguMjYxLDI4LjQzMiw5Ny4yODNsMjQ5LjM3Ny0yNDkuMzc3JiMxMDsmIzk7JiM5O0MzMjQuMjYxLDg1LjI2OCwyOTAuODcxLDc1LjQ3NCwyNTYsNzUuNDc0eiIgc3R5bGU9ImZpbGw6IzRENEQ0RDsiLz4mI3hhOwk8cGF0aCBkPSJNMjUyLjY2LDQyMi4yMTZjLTUuNjMzLDAtMTAuMTk5LTQuNTY2LTEwLjE5OS0xMC4xOTljMC01LjYzMyw0LjU2Ni0xMC4xOTksMTAuMTk5LTEwLjE5OSYjMTA7JiM5OyYjOTtjMzEuODQ0LDAsNjIuMjI0LTkuODkxLDg3Ljg1Ni0yOC42MDZjNC41NDktMy4zMiwxMC45MzEtMi4zMjUsMTQuMjUxLDIuMjIzYzMuMzIxLDQuNTQ5LDIuMzI2LDEwLjkyOS0yLjIyMywxNC4yNTEmIzEwOyYjOTsmIzk7QzMyMy4zOTYsNDEwLjk2OCwyODguODU3LDQyMi4yMTYsMjUyLjY2LDQyMi4yMTZ6IiBzdHlsZT0iZmlsbDojNEQ0RDREOyIvPiYjeGE7CTxwYXRoIGQ9Ik0zNzQuODY5LDM2NS4xMzFjLTIuMzExLDAtNC42MzUtMC43ODEtNi41NDUtMi4zOGMtNC4zMTctMy42MTgtNC44ODUtMTAuMDUtMS4yNjktMTQuMzY4JiMxMDsmIzk7JiM5O2MxLjgxMy0yLjE2NCwzLjU5MS00LjQxMyw1LjI4NC02LjY4NWMzLjM2Ny00LjUxNSw5Ljc1Ny01LjQ0NiwxNC4yNzMtMi4wODJjNC41MTYsMy4zNjcsNS40NDgsOS43NTcsMi4wODIsMTQuMjczJiMxMDsmIzk7JiM5O2MtMS45MjMsMi41NzktMy45NDMsNS4xMzQtNi4wMDIsNy41OTNDMzgwLjY3NSwzNjMuODksMzc3Ljc4MywzNjUuMTMxLDM3NC44NjksMzY1LjEzMXoiIHN0eWxlPSJmaWxsOiM0RDRENEQ7Ii8+JiN4YTs8L2c+JiN4YTs8L3N2Zz4=;" vertex="1" parent="1">
          <mxGeometry x="600" y="140" width="40" height="40" as="geometry" />
        </mxCell>
      </root>
    </mxGraphModel>
  </diagram>
</mxfile>
